<?xml version="1.0" encoding="UTF-8"?>
<!DOCTYPE svg PUBLIC "-//W3C//DTD SVG 1.1//EN" "http://www.w3.org/Graphics/SVG/1.1/DTD/svg11.dtd">
<svg xmlns="http://www.w3.org/2000/svg" version="1.1" width="32px" height="32px" style="shape-rendering:geometricPrecision; text-rendering:geometricPrecision; image-rendering:optimizeQuality; fill-rule:evenodd; clip-rule:evenodd" xmlns:xlink="http://www.w3.org/1999/xlink">
<g><path style="opacity:0.576" fill="#000000" d="M 30.5,4.5 C 30.5,5.16667 30.8333,5.5 31.5,5.5C 31.5,7.16667 31.5,8.83333 31.5,10.5C 26.0652,11.0189 23.0652,14.0189 22.5,19.5C 21.8614,20.0968 21.528,20.9302 21.5,22C 21.9543,23.9386 22.621,25.772 23.5,27.5C 19.1985,28.7729 14.8652,28.7729 10.5,27.5C 10.1667,26.5 9.5,25.8333 8.5,25.5C 8.33003,24.1779 8.66337,23.0113 9.5,22C 8.90558,21.5357 8.23891,21.369 7.5,21.5C 7.5,20.8333 7.16667,20.5 6.5,20.5C 3.82518,19.8971 1.49185,18.5638 -0.5,16.5C -0.5,14.1667 -0.5,11.8333 -0.5,9.5C 0.833333,9.5 2.16667,9.5 3.5,9.5C 3.26269,10.791 3.59603,11.791 4.5,12.5C 4.83333,15.1667 5.16667,15.1667 5.5,12.5C 6.33825,12.1583 6.67158,11.4916 6.5,10.5C 7.16667,10.5 7.5,10.1667 7.5,9.5C 8.16667,9.5 8.5,9.16667 8.5,8.5C 9.16667,8.5 9.5,8.16667 9.5,7.5C 13.3607,6.45269 17.0274,4.95269 20.5,3C 24.1029,2.157 27.4363,2.657 30.5,4.5 Z M 28.5,8.5 C 26.9724,9.30921 25.3057,9.97588 23.5,10.5C 23.1667,9.16667 22.8333,9.16667 22.5,10.5C 21.0937,10.9731 20.427,11.9731 20.5,13.5C 19.8333,13.5 19.5,13.8333 19.5,14.5C 18.1667,15.1667 18.1667,15.8333 19.5,16.5C 19.1103,19.8394 18.6103,23.1727 18,26.5C 17.6667,22.8333 17.3333,19.1667 17,15.5C 14.9104,12.9832 13.0771,12.9832 11.5,15.5C 11.1667,15.5 10.8333,15.5 10.5,15.5C 10.5,14.5 10.5,13.5 10.5,12.5C 11.5,12.1667 12.1667,11.5 12.5,10.5C 14.6547,10.628 16.6547,10.128 18.5,9C 17.9056,8.53566 17.2389,8.36899 16.5,8.5C 17.5137,7.32627 18.847,6.6596 20.5,6.5C 19.537,7.3635 19.537,8.03017 20.5,8.5C 21.2975,8.04311 21.6309,7.37644 21.5,6.5C 23.6167,9.14469 25.4501,8.81135 27,5.5C 27.6172,6.44915 27.4506,7.28248 26.5,8C 27.0944,8.46434 27.7611,8.63101 28.5,8.5 Z M 20.5,13.5 C 20.8333,13.5 21.1667,13.5 21.5,13.5C 21.573,15.0269 20.9063,16.0269 19.5,16.5C 19.5,15.8333 19.5,15.1667 19.5,14.5C 20.1667,14.5 20.5,14.1667 20.5,13.5 Z M 8.5,15.5 C 8.32842,16.4916 8.66175,17.1583 9.5,17.5C 9.5,17.8333 9.5,18.1667 9.5,18.5C 7.44818,17.9473 7.11484,16.9473 8.5,15.5 Z M 10.5,15.5 C 10.5,16.1667 10.8333,16.5 11.5,16.5C 12.5511,17.2223 13.2178,18.2223 13.5,19.5C 11.9382,19.2671 10.6049,18.6005 9.5,17.5C 9.32842,16.5084 9.66175,15.8417 10.5,15.5 Z M 11.5,20.5 C 12.1667,20.5 12.8333,20.5 13.5,20.5C 12.3047,24.2861 11.638,24.2861 11.5,20.5 Z"/></g>
<g><path style="opacity:0.016" fill="#000000" d="M 31.5,3.5 C 31.5,3.83333 31.5,4.16667 31.5,4.5C 30.8299,4.01865 30.8299,3.68532 31.5,3.5 Z"/></g>
<g><path style="opacity:0.01" fill="#000000" d="M 10.5,5.5 C 10.8966,4.47498 11.5632,4.30831 12.5,5C 11.9056,5.46434 11.2389,5.63101 10.5,5.5 Z"/></g>
<g><path style="opacity:0.005" fill="#000000" d="M 9.5,7.5 C 8.83333,7.5 8.5,7.83333 8.5,8.5C 7.83333,8.5 7.5,8.83333 7.5,9.5C 7.16667,9.5 6.83333,9.5 6.5,9.5C 6.66823,6.9486 7.66823,6.28194 9.5,7.5 Z"/></g>
<g><path style="opacity:0.013" fill="#000000" d="M 20.5,6.5 C 20.8333,6.5 21.1667,6.5 21.5,6.5C 21.6309,7.37644 21.2975,8.04311 20.5,8.5C 19.537,8.03017 19.537,7.3635 20.5,6.5 Z"/></g>
<g><path style="opacity:0.008" fill="#000000" d="M -0.5,8.5 C -0.5,8.16667 -0.5,7.83333 -0.5,7.5C 4.83333,7.83333 4.83333,8.16667 -0.5,8.5 Z"/></g>
<g><path style="opacity:0.012" fill="#000000" d="M 6.5,9.5 C 6.5,9.83333 6.5,10.1667 6.5,10.5C 5.66175,10.8417 5.32842,11.5084 5.5,12.5C 5.16667,12.5 4.83333,12.5 4.5,12.5C 4.28519,10.8212 4.95186,9.82124 6.5,9.5 Z"/></g>
<g><path style="opacity:0.009" fill="#000000" d="M 10.5,10.5 C 11.1667,10.5 11.8333,10.5 12.5,10.5C 12.1667,11.5 11.5,12.1667 10.5,12.5C 10.5,11.8333 10.5,11.1667 10.5,10.5 Z"/></g>
<g><path style="opacity:0.008" fill="#000000" d="M 22.5,10.5 C 22.5,11.1667 22.5,11.8333 22.5,12.5C 21.8333,12.5 21.5,12.8333 21.5,13.5C 21.1667,13.5 20.8333,13.5 20.5,13.5C 20.427,11.9731 21.0937,10.9731 22.5,10.5 Z"/></g>
<g><path style="opacity:0.013" fill="#000000" d="M 11.5,16.5 C 12.5,16.5 13.5,16.5 14.5,16.5C 14.5,17.5 14.5,18.5 14.5,19.5C 14.1667,19.5 13.8333,19.5 13.5,19.5C 13.2178,18.2223 12.5511,17.2223 11.5,16.5 Z"/></g>
<g><path style="opacity:0.01" fill="#000000" d="M 22.5,19.5 C 23.5983,20.6009 23.765,21.9343 23,23.5C 22.51,22.2068 22.3433,20.8734 22.5,19.5 Z"/></g>
<g><path style="opacity:0.531" fill="#000000" d="M 6.5,20.5 C 7.16667,20.5 7.5,20.8333 7.5,21.5C 7.23219,23.099 7.56552,24.4324 8.5,25.5C 8.5,26.5 8.5,27.5 8.5,28.5C 5.5,28.5 2.5,28.5 -0.5,28.5C -0.5,27.5 -0.5,26.5 -0.5,25.5C 1.57324,23.4202 3.90657,21.7536 6.5,20.5 Z"/></g>
<g><path style="opacity:0.004" fill="#000000" d="M 24.5,27.5 C 24.369,26.7611 24.5357,26.0944 25,25.5C 25.6917,26.4368 25.525,27.1034 24.5,27.5 Z"/></g>
<g><path style="opacity:0.016" fill="#000000" d="M 10.5,27.5 C 10.5,27.8333 10.5,28.1667 10.5,28.5C 9.82986,28.0187 9.82986,27.6853 10.5,27.5 Z"/></g>
<g><path style="opacity:0.008" fill="#000000" d="M 23.5,27.5 C 23.8333,27.5 24.1667,27.5 24.5,27.5C 24.3147,28.1701 23.9813,28.1701 23.5,27.5 Z"/></g>
<g><path style="opacity:0.012" fill="#000000" d="M 10.5,28.5 C 11.1667,28.5 11.5,28.8333 11.5,29.5C 11.1667,29.1667 10.8333,28.8333 10.5,28.5 Z"/></g>
<g><path style="opacity:0.011" fill="#000000" d="M -0.5,30.5 C -0.5,30.1667 -0.5,29.8333 -0.5,29.5C 10.1667,29.8333 10.1667,30.1667 -0.5,30.5 Z"/></g>
<g><path style="opacity:0.009" fill="#000000" d="M 11.5,29.5 C 15.1817,29.3347 18.8484,29.5014 22.5,30C 18.6425,30.8099 14.9758,30.6433 11.5,29.5 Z"/></g>
</svg>
